HIERARCHY
ROOT hip
{
  OFFSET 0 0 0
  CHANNELS 6 Xposition Yposition Zposition Zrotation Yrotation Xrotation
  JOINT abdomen
  {
    OFFSET 0 20.6881 -0.73152
    CHANNELS 3 Zrotation Xrotation Yrotation
    JOINT chest
    {
      OFFSET 0 11.7043 -0.48768
      CHANNELS 3 Zrotation Xrotation Yrotation
      JOINT neck
      {
        OFFSET 0 22.1894 -2.19456
        CHANNELS 3 Zrotation Xrotation Yrotation
        JOINT head
        {
          OFFSET -0.24384 7.07133 1.2192
          CHANNELS 3 Zrotation Xrotation Yrotation
          JOINT leftEye
          {
            OFFSET 4.14528 8.04674 8.04672
            CHANNELS 3 Zrotation Xrotation Yrotation
            End Site
            {
              OFFSET 1 0 0
            }
          }
          JOINT rightEye
          {
            OFFSET -3.6576 8.04674 8.04672
            CHANNELS 3 Zrotation Xrotation Yrotation
            End Site
            {
              OFFSET 1 0 0
            }
          }
        }
      }
      JOINT rCollar
      {
        OFFSET -2.68224 19.2634 -4.8768
        CHANNELS 3 Zrotation Xrotation Yrotation
        JOINT rShldr
        {
          OFFSET -8.77824 -1.95073 1.46304
          CHANNELS 3 Zrotation Xrotation Yrotation
          JOINT rForeArm
          {
            OFFSET -28.1742 -1.7115 0.48768
            CHANNELS 3 Zrotation Xrotation Yrotation
            JOINT rHand
            {
              OFFSET -22.5879 0.773209 7.07136
              CHANNELS 3 Zrotation Xrotation Yrotation
              JOINT rThumb1
              {
                OFFSET -1.2192 -0.487915 3.41376
                CHANNELS 3 Zrotation Xrotation Yrotation
                JOINT rThumb2
                {
                  OFFSET -3.37035 -0.52449 3.41376
                  CHANNELS 3 Zrotation Xrotation Yrotation
                  End Site
                  {
                    OFFSET -1.78271 -1.18214 1.43049
                  }
                }
              }
              JOINT rIndex1
              {
                OFFSET -7.75947 0.938293 5.60832
                CHANNELS 3 Zrotation Xrotation Yrotation
                JOINT rIndex2
                {
                  OFFSET -2.54057 -0.884171 1.56538
                  CHANNELS 3 Zrotation Xrotation Yrotation
                  End Site
                  {
                    OFFSET -1.62519 -0.234802 1.16502
                  }
                }
              }
              JOINT rMid1
              {
                OFFSET -8.24714 1.18213 3.41376
                CHANNELS 3 Zrotation Xrotation Yrotation
                JOINT rMid2
                {
                  OFFSET -3.10165 -0.590103 1.0647
                  CHANNELS 3 Zrotation Xrotation Yrotation
                  End Site
                  {
                    OFFSET -2.48547 -0.328903 0.83742
                  }
                }
              }
              JOINT rRing1
              {
                OFFSET -8.82822 0.546677 1.51678
                CHANNELS 3 Zrotation Xrotation Yrotation
                JOINT rRing2
                {
                  OFFSET -2.60934 -0.819778 -0.0198488
                  CHANNELS 3 Zrotation Xrotation Yrotation
                  End Site
                  {
                    OFFSET -2.33842 -0.294052 0.168128
                  }
                }
              }
              JOINT rPinky1
              {
                OFFSET -8.27202 -0.0477905 -0.4584
                CHANNELS 3 Zrotation Xrotation Yrotation
                JOINT rPinky2
                {
                  OFFSET -1.82734 -0.647385 -0.700984
                  CHANNELS 3 Zrotation Xrotation Yrotation
                  End Site
                  {
                    OFFSET -1.69225 -0.51767 -0.607171
                  }
                }
              }
            }
          }
        }
      }
      JOINT lCollar
      {
        OFFSET 2.68224 19.2634 -4.8768
        CHANNELS 3 Zrotation Xrotation Yrotation
        JOINT lShldr
        {
          OFFSET 8.77824 -1.95073 1.46304
          CHANNELS 3 Zrotation Xrotation Yrotation
          JOINT lForeArm
          {
            OFFSET 28.1742 -1.7115 0.48768
            CHANNELS 3 Zrotation Xrotation Yrotation
            JOINT lHand
            {
              OFFSET 22.5879 0.773209 7.07136
              CHANNELS 3 Zrotation Xrotation Yrotation
              JOINT lThumb1
              {
                OFFSET 1.2192 -0.487915 3.41376
                CHANNELS 3 Zrotation Xrotation Yrotation
                JOINT lThumb2
                {
                  OFFSET 3.37035 -0.52449 3.41376
                  CHANNELS 3 Zrotation Xrotation Yrotation
                  End Site
                  {
                    OFFSET 1.78271 -1.18214 1.43049
                  }
                }
              }
              JOINT lIndex1
              {
                OFFSET 7.75947 0.938293 5.60832
                CHANNELS 3 Zrotation Xrotation Yrotation
                JOINT lIndex2
                {
                  OFFSET 2.54057 -0.884171 1.56538
                  CHANNELS 3 Zrotation Xrotation Yrotation
                  End Site
                  {
                    OFFSET 1.62519 -0.234802 1.16502
                  }
                }
              }
              JOINT lMid1
              {
                OFFSET 8.24714 1.18213 3.41376
                CHANNELS 3 Zrotation Xrotation Yrotation
                JOINT lMid2
                {
                  OFFSET 3.10165 -0.590103 1.0647
                  CHANNELS 3 Zrotation Xrotation Yrotation
                  End Site
                  {
                    OFFSET 2.48547 -0.328903 0.83742
                  }
                }
              }
              JOINT lRing1
              {
                OFFSET 8.82822 0.546677 1.51678
                CHANNELS 3 Zrotation Xrotation Yrotation
                JOINT lRing2
                {
                  OFFSET 2.60934 -0.819778 -0.0198488
                  CHANNELS 3 Zrotation Xrotation Yrotation
                  End Site
                  {
                    OFFSET 2.33842 -0.294052 0.168128
                  }
                }
              }
              JOINT lPinky1
              {
                OFFSET 8.27202 -0.0477905 -0.4584
                CHANNELS 3 Zrotation Xrotation Yrotation
                JOINT lPinky2
                {
                  OFFSET 1.82734 -0.647385 -0.700984
                  CHANNELS 3 Zrotation Xrotation Yrotation
                  End Site
                  {
                    OFFSET 1.69225 -0.51767 -0.607171
                  }
                }
              }
            }
          }
        }
      }
    }
  }
  JOINT rButtock
  {
    OFFSET -8.77824 4.35084 1.2192
    CHANNELS 3 Zrotation Xrotation Yrotation
    JOINT rThigh
    {
      OFFSET 0 -1.70687 -2.19456
      CHANNELS 3 Zrotation Xrotation Yrotation
      JOINT rShin
      {
        OFFSET 0 -36.8199 0.73152
        CHANNELS 3 Zrotation Xrotation Yrotation
        JOINT rFoot
        {
          OFFSET 0.73152 -45.1104 -5.12064
          CHANNELS 3 Zrotation Xrotation Yrotation
          End Site
          {
            OFFSET -1.1221 -3.69964 12.103
          }
        }
      }
    }
  }
  JOINT lButtock
  {
    OFFSET 8.77824 4.35084 1.2192
    CHANNELS 3 Zrotation Xrotation Yrotation
    JOINT lThigh
    {
      OFFSET 0 -1.70687 -2.19456
      CHANNELS 3 Zrotation Xrotation Yrotation
      JOINT lShin
      {
        OFFSET 0 -36.8199 0.73152
        CHANNELS 3 Zrotation Xrotation Yrotation
        JOINT lFoot
        {
          OFFSET -0.73152 -45.1104 -5.12064
          CHANNELS 3 Zrotation Xrotation Yrotation
          End Site
          {
            OFFSET 1.1221 -3.69964 12.103
          }
        }
      }
    }
  }
}
MOTION
Frames:	4
Frame Time:	0.03333
-21.842143005442683 57.48679941360007 13.425218181913989 -0.5194661617279053 -7.427168846130371 0.39198940992355347 -3.518333911895752 14.489995002746582 -6.036112308502197 6.411252021789551 -10.619904518127441 -1.3094172477722168 -1.4927066564559937 10.085619926452637 1.8464444875717163 2.237980842590332 -19.44903564453125 5.170865535736084 0.16757555305957794 0.13463997840881348 -0.0646912157535553 -0.0175176952034235 -0.010255132801830769 -0.014627235010266304 -0.09976250678300858 -0.04690924286842346 0.02297821454703808 97.86485290527344 47.67216491699219 -52.37481689453125 -27.432870864868164 -42.41068649291992 88.92731475830078 -18.362686157226562 -71.84899139404297 -24.782873153686523 0.08517508208751678 0.30059123039245605 -0.1709752231836319 -0.5258930325508118 0.26796454191207886 0.25624293088912964 -0.15858741104602814 -0.07072329521179199 0.10839509218931198 6.924611568450928 5.117608547210693 0.3704865574836731 0.1922186315059662 0.7444999814033508 0.11298827826976776 3.0110421180725098 0.9259288907051086 0.8725495338439941 -0.18311060965061188 -0.30877578258514404 -0.12482108920812607 10.158501625061035 0.12993058562278748 -0.014611455611884594 -0.021818682551383972 -0.44911307096481323 0.36793556809425354 1.720551609992981 -0.47364553809165955 -0.2361251562833786 -0.12061229348182678 0.4028216004371643 0.09753807634115219 -75.28221130371094 -3.86871075630188 -82.75483703613281 5.648831367492676 -2.326510429382324 -10.270980834960938 20.660614013671875 73.06864166259766 -27.36300277709961 -0.44638389348983765 -0.06270261108875275 0.06783931702375412 0.10788386315107346 0.1282694786787033 -0.16472400724887848 -0.4164067208766937 0.6119433045387268 0.022480065003037453 -8.148401260375977 5.235527038574219 -0.22601719200611115 -0.05091073364019394 -0.0020464821718633175 -0.09978094696998596 -2.5818092823028564 0.9989678859710693 -0.17727550864219666 0.2094944715499878 0.041681479662656784 -0.08798322081565857 -10.136707305908203 0.9745960235595703 0.043606434017419815 0.04908556118607521 -0.2866123616695404 -0.044639166444540024 -2.1057441234588623 -0.3863074481487274 0.4267652630805969 0.051006633788347244 0.5036590695381165 -0.4290410578250885 -41.89451599121094 -54.614322662353516 -23.862030029296875 -21.172805786132812 87.62932586669922 22.094837188720703 -4.556037425994873 -33.52906036376953 -5.781176567077637 0.03442157432436943 0.3511946499347687 0.14162099361419678 53.08346939086914 -40.679931640625 47.61997604370117 167.83493041992188 87.16495513916016 -169.6756591796875 9.584823608398438 -23.519655227661133 17.54431915283203
-21.810787314510446 57.44612563709264 13.710709256967386 -0.3752061128616333 -7.791463851928711 0.5554624795913696 -3.6236398220062256 14.587757110595703 -6.192830562591553 6.4992780685424805 -10.672813415527344 -1.4419652223587036 -1.2273982763290405 10.009861946105957 2.152336359024048 1.9624699354171753 -19.670543670654297 5.908030986785889 0.1285339891910553 0.10176233947277069 -0.08278153836727142 -0.013406968675553799 -0.05219705402851105 0.011563724838197231 -0.10884890705347061 -0.017020786181092262 0.03007366508245468 99.81829833984375 46.14875793457031 -54.64850997924805 -27.57408332824707 -42.08649444580078 88.17396545410156 -19.22071075439453 -72.26896667480469 -25.799745559692383 0.10372065007686615 0.31445154547691345 -0.12540188431739807 -0.5915467143058777 0.24335549771785736 0.2749941647052765 -0.16397708654403687 -0.10243610292673111 0.115436851978302 6.939653396606445 5.074573040008545 0.38946837186813354 0.17001233994960785 0.7706923484802246 0.09638483077287674 3.036205768585205 0.91496741771698 0.8583492636680603 -0.19476304948329926 -0.34425193071365356 -0.18119636178016663 10.212039947509766 0.10174240171909332 -0.05611691251397133 0.014775273390114307 -0.4760403037071228 0.37129902839660645 1.637855052947998 -0.49144211411476135 -0.2578372657299042 -0.10815726965665817 0.49802324175834656 0.1034446656703949 -79.19164276123047 -5.263675212860107 -83.25760650634766 4.816579818725586 -1.8775831460952759 -8.831074714660645 27.450143814086914 76.21676635742188 -34.455928802490234 -0.4606243073940277 -0.04418930038809776 0.07269406318664551 0.046270232647657394 0.09637115150690079 -0.16410638391971588 -0.3648015260696411 0.6676344871520996 0.034170687198638916 -8.120355606079102 5.223846435546875 -0.20481936633586884 -0.0641188845038414 0.05949357524514198 -0.07840047031641006 -2.608902931213379 0.9855695366859436 -0.16739340126514435 0.27786266803741455 0.08848405629396439 -0.10873644053936005 -10.156533241271973 1.0228350162506104 0.0837496966123581 0.07829012721776962 -0.262190043926239 -0.034085310995578766 -2.062260150909424 -0.36381277441978455 0.4302721321582794 0.04653681442141533 0.4783543050289154 -0.4169667959213257 -41.64903259277344 -54.88136291503906 -23.43718719482422 -22.518930435180664 87.64373779296875 23.521604537963867 -4.935149669647217 -33.24956512451172 -6.494176387786865 0.017601195722818375 0.3587040603160858 0.16988258063793182 53.2886962890625 -40.44106674194336 47.822383880615234 167.76065063476562 87.11526489257812 -169.61492919921875 9.580934524536133 -23.420827865600586 17.552379608154297
-21.78850691727275 57.25298837793219 13.978563609645045 -0.3843277096748352 -7.904395580291748 0.8364741802215576 -3.558303117752075 14.756105422973633 -6.268296241760254 6.604708194732666 -10.77198600769043 -1.5215487480163574 -0.9275901317596436 9.940597534179688 2.4948530197143555 1.6769081354141235 -20.0540771484375 6.654183864593506 0.10009130835533142 0.06975037604570389 -0.10230102390050888 0.014305823482573032 -0.07532450556755066 0.030592968687415123 -0.1302451342344284 0.03042479231953621 0.055429235100746155 101.7353744506836 44.61796951293945 -56.5831298828125 -27.71232032775879 -41.84868621826172 87.58563995361328 -20.18828582763672 -72.76118469238281 -26.945247650146484 0.12731175124645233 0.313568115234375 -0.05696965381503105 -0.6388924717903137 0.219791442155838 0.2733847498893738 -0.1783103346824646 -0.1294756382703781 0.09801382571458817 6.982938289642334 5.049619674682617 0.39547282457351685 0.11954963952302933 0.7711642980575562 0.08769518882036209 3.0757434368133545 0.9016790390014648 0.8405163884162903 -0.2113417387008667 -0.3584306836128235 -0.22455118596553802 10.283594131469727 0.08935083448886871 -0.0843123197555542 0.050289466977119446 -0.4987938702106476 0.36737534403800964 1.5441398620605469 -0.5288928151130676 -0.27364763617515564 -0.07109727710485458 0.5622811317443848 0.09557542949914932 -82.81210327148438 -6.414078712463379 -84.21670532226562 4.01951265335083 -1.4710577726364136 -7.453003883361816 38.02934646606445 79.02778625488281 -45.34590148925781 -0.4697282314300537 -0.03278536722064018 0.10002052038908005 -0.01908009499311447 0.06873448938131332 -0.17484454810619354 -0.31576839089393616 0.6962615847587585 0.0422176793217659 -8.097838401794434 5.226051330566406 -0.18047340214252472 -0.061000075191259384 0.12306714057922363 -0.052497006952762604 -2.620507001876831 0.9693188667297363 -0.13082805275917053 0.3365687429904938 0.13423041999340057 -0.12370826303958893 -10.176935195922852 1.07069993019104 0.11591214686632156 0.11167085915803909 -0.25062987208366394 -0.021335095167160034 -2.0146141052246094 -0.34679490327835083 0.44481635093688965 0.01880698837339878 0.44347503781318665 -0.38974738121032715 -41.51723861694336 -55.24140167236328 -23.405797958374023 -26.763662338256836 87.85624694824219 27.857038497924805 -5.423918724060059 -33.031402587890625 -7.516798973083496 0.001705455593764782 0.3475492000579834 0.1812712550163269 54.003623962402344 -40.45448303222656 48.68914794921875 168.8734588623047 86.55036926269531 -170.69081115722656 9.588515281677246 -23.40665626525879 17.47885513305664
-21.781063505181315 57.08696355468211 14.232574129370441 -0.3937128484249115 -7.861274719238281 1.019420862197876 -3.5012707710266113 15.044246673583984 -6.348073959350586 6.737441539764404 -10.859814643859863 -1.6022636890411377 -0.609713613986969 9.856586456298828 2.8010449409484863 1.3906184434890747 -20.47858238220215 7.266506195068359 0.06245755776762962 0.032222721725702286 -0.11511827260255814 0.0622415617108345 -0.07948031276464462 0.061913710087537766 -0.1313806176185608 0.07534496486186981 0.10407187044620514 103.4152603149414 42.97184371948242 -58.13331985473633 -27.8488826751709 -41.579410552978516 86.9871597290039 -20.97527313232422 -73.14045715332031 -27.917329788208008 0.1466437578201294 0.2841069996356964 0.008626757189631462 -0.6633243560791016 0.17655079066753387 0.25868529081344604 -0.2026192843914032 -0.15082205832004547 0.06164603307843208 7.050671577453613 5.0543060302734375 0.39325150847435 0.0337090827524662 0.7638648748397827 0.06910023093223572 3.127561092376709 0.8815445899963379 0.7976024746894836 -0.21368612349033356 -0.3389205038547516 -0.2765465974807739 10.362760543823242 0.0818348303437233 -0.12513819336891174 0.07516754418611526 -0.5077899694442749 0.3664509952068329 1.4622974395751953 -0.5861877799034119 -0.28608784079551697 -0.03413496911525726 0.595868706703186 0.0897320881485939 -86.15352630615234 -7.30352783203125 -85.34817504882812 3.2988622188568115 -1.188217043876648 -6.094460964202881 53.980411529541016 81.12800598144531 -61.58448028564453 -0.47045761346817017 -0.011712687090039253 0.12015412002801895 -0.11947659403085709 0.04189008101820946 -0.19551655650138855 -0.24995294213294983 0.7039483189582825 0.06797122955322266 -8.085908889770508 5.2193403244018555 -0.1579408198595047 -0.06220399588346481 0.18516086041927338 -0.007941617630422115 -2.610323667526245 0.9465924501419067 -0.07616366446018219 0.38050761818885803 0.18217189610004425 -0.15129269659519196 -10.200041770935059 1.1064763069152832 0.12065085023641586 0.15930715203285217 -0.249909445643425 -0.026126017794013023 -1.9819763898849487 -0.3291392922401428 0.43895986676216125 -0.04232823848724365 0.3831348717212677 -0.34374868869781494 -41.7263069152832 -55.80187225341797 -23.833139419555664 -35.46299362182617 88.21205139160156 36.63046646118164 -5.923837661743164 -32.81510543823242 -8.576563835144043 -0.016526879742741585 0.334219366312027 0.19078636169433594 54.76326370239258 -40.57206726074219 49.68288040161133 169.91050720214844 85.81880950927734 -171.6537322998047 9.695758819580078 -23.490375518798828 17.557056427001953
